<svg id="SvgjsSvg1001" width="288" height="288" xmlns="http://www.w3.org/2000/svg" version="1.1" xmlns:xlink="http://www.w3.org/1999/xlink" xmlns:svgjs="http://svgjs.com/svgjs"><defs id="SvgjsDefs1002"></defs><g id="SvgjsG1008" transform="matrix(0.9167,0,0,0.9167,12.495000000000005,12.99346030578613)"><svg xmlns="http://www.w3.org/2000/svg" width="288" height="288" viewBox="0 0 24 24"><path d="M14 6H4c-.55 0-1 .45-1 1s.45 1 1 1h10c.55 0 1-.45 1-1s-.45-1-1-1zm0 4H4c-.55 0-1 .45-1 1s.45 1 1 1h10c.55 0 1-.45 1-1s-.45-1-1-1zM4 16h6c.55 0 1-.45 1-1s-.45-1-1-1H4c-.55 0-1 .45-1 1s.45 1 1 1zM19 6c-1.1 0-2 .9-2 2v6.18c-.31-.11-.65-.18-1-.18-1.84 0-3.28 1.64-2.95 3.54.21 1.21 1.2 2.2 2.41 2.41 1.9.33 3.54-1.11 3.54-2.95V8h2c.55 0 1-.45 1-1s-.45-1-1-1h-2z" fill="#ff0000" class="color000 svgShape"></path></svg></g></svg>